<svg version="1.1" class="clearos-svg clearfoundation app-vendor-clearfoundation app-free app-category-reports app-sub-category-performance-and-resources" viewBox="0 0 400 400" preserveAspectRatio="xMinYMin" xmlns="http://www.w3.org/2000/svg" xmlns:xlink= "http://www.w3.org/1999/xlink">
<path fill="#AA0707" d="M91.666,184.647"/>
<path fill="#AA0707" d="M123.245,247.805"/>
<path fill="#AA0707" d="M91.666,184.647"/>
<path fill="#AA0707" d="M123.245,247.805"/>
<g>
	<polygon fill="none" points="302.707,27.597 302.707,119.121 382.501,119.121 	"/>
	<rect x="111.191" y="245.302" fill="none" width="10.121" height="21.765"/>
		<path fill="#686868" d="M397.483,121.42L298.93,11.172H121.28v150.877H58.617c-8.538,0-15.472,6.867-15.472,15.325l-0.229,51.09
			c0,8.481,6.965,15.341,15.473,15.341h37.135v21.779l-17.021-0.029c-21.452,0-38.803,17.163-38.803,38.366v17.011H10.236
			c-4.257,0-7.72,3.367-7.72,7.654v52.664c0,4.193,3.462,7.577,7.72,7.577h82.689c4.258,0,7.688-3.414,7.688-7.577v-52.695
			c0-4.238-3.447-7.64-7.688-7.64H54.479v-7.078c0-19.021,15.565-34.485,34.806-34.485l6.256,0.063h15.651h6.219
			c19.208,0,34.781,15.449,34.781,34.455v7.063h-33.061c-4.25,0-7.702,3.398-7.702,7.655v52.664c0,4.178,3.453,7.577,7.702,7.577
			h82.66c4.258,0,7.721-3.414,7.721-7.577v-52.694c0-0.326-0.109-0.484-0.143-0.779h188.114V121.42L397.483,121.42z
			 M121.279,265.568h-10.104V243.79h10.12L121.279,265.568L121.279,265.568z M302.707,26.085l79.855,91.478h-79.855V26.085
			L302.707,26.085z M385.712,314.398H166.971v-10.444c0-19.771-15.134-35.858-34.538-38.011v-22.17h19.438
			c8.522,0,15.471-6.859,15.471-15.355l0.205-51.059c0-8.475-6.939-15.342-15.456-15.342l0,0h-19.656V23.941h162.674V124.92h90.621
			L385.712,314.398L385.712,314.398z"/>
		<rect x="185.855" y="141.509" fill="#686868" width="143.104" height="14.398"/>
		<rect x="185.855" y="178.668" fill="#686868" width="143.104" height="14.406"/>
		<rect x="186.61" y="219.578" fill="#686868" width="143.104" height="14.404"/>
	</g>
</g>
</svg>
